<svg xmlns="http://www.w3.org/2000/svg" viewBox="0 0 472.87 444.44"><defs><style>.cls-1{fill:#ffca28;}.cls-2{fill:#263238;}.cls-3{fill:#e53935;}</style></defs><g id="Layer_2" data-name="Layer 2"><g id="Emojies"><path class="cls-1" d="M444.44,222.22C444.44,345,345,444.44,222.22,444.44S0,345,0,222.22,99.5,0,222.22,0,444.44,99.5,444.44,222.22"/><path class="cls-2" d="M231.14,336.08a8,8,0,0,1-4.45-14.71l27.69-18.45L226.7,284.47a8,8,0,0,1,0-13.36l27.7-18.47-27.7-18.45a8,8,0,0,1,8.91-13.36L273.3,246a8,8,0,0,1,0,13.37l-27.67,18.47,27.67,18.44a8,8,0,0,1,0,13.37l-37.7,25.13a8,8,0,0,1-4.46,1.35Z"/><path class="cls-3" d="M472.72,324.11c-1.19-12.95-10.66-23.82-23.82-23.82a23.83,23.83,0,0,0-21.81,14.29c-3.69-8.4-11.53-14.29-21.29-14.29-13.14,0-22.61,10.87-23.8,23.82,0,0-.64,3.21.77,9a39.65,39.65,0,0,0,12.55,20.23l31.77,27.83,32.3-27.83A39.67,39.67,0,0,0,472,333.1C473.36,327.32,472.72,324.11,472.72,324.11Z"/><path class="cls-3" d="M406.11,251.64c1.4-5.77.77-9,.77-9-1.2-13-10.65-23.81-23.8-23.81a23.81,23.81,0,0,0-21.84,14.29c-3.67-8.43-11.51-14.29-21.27-14.29-13.16,0-22.63,10.86-23.81,23.81,0,0-.63,3.22.78,9a39.58,39.58,0,0,0,12.55,20.22l31.75,27.84,32.33-27.84A39.56,39.56,0,0,0,406.11,251.64Z"/><path class="cls-2" d="M179.67,168.52a9.23,9.23,0,0,1-9.22-9.22,31.56,31.56,0,1,0-63.12,0,9.23,9.23,0,0,1-18.46,0,50,50,0,1,1,100,0,9.24,9.24,0,0,1-9.24,9.22Z"/><path class="cls-2" d="M346.34,168.52a9.24,9.24,0,0,1-9.23-9.22,31.57,31.57,0,1,0-63.13,0,9.22,9.22,0,0,1-18.44,0,50,50,0,1,1,100,0,9.23,9.23,0,0,1-9.23,9.22Z"/></g></g></svg>