<svg xmlns="http://www.w3.org/2000/svg" viewBox="0 0 444.44 444.44"><defs><style>.cls-1{fill:#ffca28;}.cls-2{fill:#ffb300;}.cls-3{fill:#e53935;}.cls-4{fill:#263238;}</style></defs><g id="Layer_2" data-name="Layer 2"><g id="Emojies"><path class="cls-1" d="M444.44,222.22C444.44,345,345,444.44,222.22,444.44S0,345,0,222.22,99.5,0,222.22,0,444.44,99.5,444.44,222.22"/><circle class="cls-2" cx="361.98" cy="252.28" r="57.46"/><circle class="cls-2" cx="82.46" cy="252.28" r="57.46"/><path class="cls-3" d="M302.19,272.34a10.1,10.1,0,0,0-5.47-5.72,11.22,11.22,0,0,0-7.7-.51,10.48,10.48,0,0,0-6.48,5.32C271.64,293.63,248,308,222.21,308s-49.4-14.34-60.31-36.54a10.38,10.38,0,0,0-6.42-5.3,11.17,11.17,0,0,0-7.71.47,10.18,10.18,0,0,0-5.52,5.75,9.29,9.29,0,0,0,.38,7.38c14.35,29.2,45.59,48.07,79.58,48.07s65.27-18.87,79.62-48.09A9.31,9.31,0,0,0,302.19,272.34Z"/><path class="cls-4" d="M187.05,187.92a11.09,11.09,0,0,1-11.11-11.08,38,38,0,1,0-76,0,11.1,11.1,0,0,1-22.2,0,60.19,60.19,0,1,1,120.37,0,11.08,11.08,0,0,1-11.1,11.08Z"/><path class="cls-4" d="M355.55,187.92a11.08,11.08,0,0,1-11.09-11.08,38,38,0,1,0-76,0,11.1,11.1,0,0,1-22.2,0,60.19,60.19,0,1,1,120.37,0,11.09,11.09,0,0,1-11.12,11.08Z"/></g></g></svg>