<svg xmlns="http://www.w3.org/2000/svg" viewBox="0 0 444.44 444.44"><defs><style>.cls-1{fill:#ffca28;}.cls-2{fill:#e53935;}.cls-3{fill:#fff;}.cls-4{fill:#00b0ff;}.cls-5{fill:#263238;}</style></defs><g id="Layer_2" data-name="Layer 2"><g id="Emojies"><path class="cls-1" d="M444.44,222.22C444.44,345,345,444.44,222.22,444.44S0,345,0,222.22,99.5,0,222.22,0,444.44,99.5,444.44,222.22"/><path class="cls-2" d="M222.2,388.89c-58.76,0-106.83-44.07-111.09-100H333.33C329,344.82,281,388.88,222.2,388.89Z"/><path class="cls-3" d="M64,167.13a62.22,62.22,0,1,1,62.23,62.2A62.21,62.21,0,0,1,64,167.13"/><path class="cls-4" d="M126.14,198.8A21.2,21.2,0,1,1,147.34,220a21.18,21.18,0,0,1-21.2-21.22"/><path class="cls-3" d="M378.85,167.13a62.22,62.22,0,1,0-62.23,62.2,62.2,62.2,0,0,0,62.23-62.2"/><path class="cls-4" d="M316.68,198.8A21.21,21.21,0,1,0,295.45,220a21.2,21.2,0,0,0,21.23-21.22"/><path class="cls-5" d="M106.17,270.07A97.85,97.85,0,1,1,204,172.23a97.95,97.95,0,0,1-97.85,97.84Zm0-178.53a80.69,80.69,0,1,0,80.68,80.69,80.77,80.77,0,0,0-80.68-80.69Z"/><path class="cls-5" d="M338.26,270.07a97.85,97.85,0,1,1,97.85-97.84,98,98,0,0,1-97.85,97.84Zm0-178.53A80.69,80.69,0,1,0,419,172.23a80.78,80.78,0,0,0-80.7-80.69Z"/><path class="cls-5" d="M244.62,168.1h-44.3a8.59,8.59,0,0,1,0-17.17h44.3a8.59,8.59,0,0,1,0,17.17Z"/></g></g></svg>