<svg xmlns="http://www.w3.org/2000/svg" viewBox="0 0 444.44 444.44"><defs><style>.cls-1{fill:#ffca28;}.cls-2{fill:#e53935;}.cls-3{fill:#fff;}.cls-4{fill:#263238;}</style></defs><g id="Layer_2" data-name="Layer 2"><g id="Emojies"><circle class="cls-1" cx="222.22" cy="222.22" r="222.22"/><path class="cls-2" d="M291.67,295.84a69.45,69.45,0,1,1-69.45-69.45A69.44,69.44,0,0,1,291.67,295.84Z"/><path class="cls-3" d="M244.44,134.72A55.56,55.56,0,1,0,300,79.17,55.54,55.54,0,0,0,244.44,134.72Z"/><path class="cls-4" d="M272.22,134.72A27.78,27.78,0,1,0,300,107,27.76,27.76,0,0,0,272.22,134.72Z"/><path class="cls-3" d="M88.89,134.72a55.56,55.56,0,1,0,55.54-55.55A55.53,55.53,0,0,0,88.89,134.72Z"/><path class="cls-4" d="M116.67,134.72A27.78,27.78,0,1,0,144.43,107,27.76,27.76,0,0,0,116.67,134.72Z"/></g></g></svg>