<svg xmlns="http://www.w3.org/2000/svg" viewBox="0 0 444.44 444.44"><defs><style>.cls-1{fill:#ffca28;}.cls-2{fill:#263238;}.cls-3{fill:#e53935;}.cls-4{fill:#fff;}</style></defs><g id="Layer_2" data-name="Layer 2"><g id="Emojies"><circle class="cls-1" cx="222.22" cy="222.22" r="222.22"/><path class="cls-2" d="M98.48,200a9.61,9.61,0,0,1-5.38-17.56l56-38-56-38a9.6,9.6,0,0,1,10.74-15.91l67.69,45.94a9.61,9.61,0,0,1,0,15.91l-67.69,46A9.47,9.47,0,0,1,98.48,200Z"/><path class="cls-2" d="M346,200a9.49,9.49,0,0,1-5.36-1.65l-67.7-46a9.62,9.62,0,0,1,0-15.91l67.7-45.94a9.6,9.6,0,0,1,10.74,15.91l-56,38,56,38A9.61,9.61,0,0,1,346,200Z"/><path class="cls-3" d="M353.27,297H91.17a135.94,135.94,0,0,1-5.66-13c19.33,51.89,73.17,95.06,136.71,95.06s117.37-43.15,136.7-95A137.75,137.75,0,0,1,353.27,297Z"/><path class="cls-4" d="M353.27,297a137.75,137.75,0,0,0,5.65-12.94.49.49,0,0,0,0-.11,131,131,0,0,0,3.93-12.5c.09-.37.23-.75.32-1.12a117.53,117.53,0,0,0,2.21-11.55c.1-.71.28-1.43.37-2.15a106.84,106.84,0,0,0,.88-13.49H77.78a106.84,106.84,0,0,0,.88,13.49c.08.72.26,1.42.36,2.12.57,3.88,1.25,7.75,2.21,11.58.09.37.23.75.33,1.12a128.13,128.13,0,0,0,3.92,12.5s0,.05,0,.09a135.94,135.94,0,0,0,5.66,13Z"/></g></g></svg>